<svg width="1236" height="861" fill="none" xmlns="http://www.w3.org/2000/svg"><path fill-rule="evenodd" clip-rule="evenodd" d="M841.7 150.347c58.936-24.994 126.634-30.288 192.71-10.322 149.92 45.303 234.71 203.494 189.38 353.331-33.73 111.498-129.94 186.862-238.681 199.561-57.22 128.709-202.729 197.696-341.115 155.879a285.391 285.391 0 0 1-40.637-15.743c-34.28 13.779-73.388 16.468-111.561 4.933-58.934-17.809-100.926-64.984-114.789-120.654-54.691 19.102-115.716 21.683-175.415 3.643C51.672 675.672-33.117 517.481 12.211 367.644c33.73-111.497 129.936-186.862 238.68-199.561C308.112 39.373 453.62-29.613 592.006 12.204a284.848 284.848 0 0 1 50.417 20.656c27.59-6.295 57.174-5.735 86.155 3.023C785.315 53.028 826.35 97.39 841.7 150.347Z" fill="#fff"/><path fill-rule="evenodd" clip-rule="evenodd" d="M841.7 150.347c58.936-24.994 126.634-30.288 192.71-10.322 149.92 45.303 234.71 203.494 189.38 353.331-33.73 111.498-129.94 186.862-238.681 199.561-57.221 128.709-202.729 197.696-341.115 155.879a285.391 285.391 0 0 1-40.637-15.743c-34.28 13.779-73.388 16.468-111.561 4.933-58.934-17.809-100.926-64.984-114.789-120.654-54.691 19.102-115.716 21.683-175.415 3.643C51.672 675.672-33.117 517.481 12.211 367.644c33.73-111.497 129.936-186.862 238.68-199.561C308.112 39.373 453.62-29.613 592.006 12.204a284.848 284.848 0 0 1 50.417 20.656c27.59-6.295 57.174-5.735 86.154 3.023C785.315 53.028 826.35 97.39 841.7 150.347ZM738.148 292.981l-10.577-19.733-49.502 26.502 56.252 104.95.028-.015 2.655 4.954 105.008-56.22-26.517-49.474-22.836 12.226c41.64-65.635 123.329-98.347 201.398-74.756 93.903 28.374 147.003 127.454 118.613 221.301-22.1 73.069-87.09 121.422-159.108 125.859a236.615 236.615 0 0 1-9.347 48.877 240.002 240.002 0 0 1-3.151 9.67c.501.004-.5 0 0 0-37.874 117.762-161.876 183.892-280.818 147.95-20.299-6.133-39.109-14.848-56.179-25.674-27.119 18.559-62.109 25.111-96.019 14.864-43.114-13.028-72.627-49.631-78.685-91.422-2.285-15.761-1.233-32.26 3.683-48.511a113.666 113.666 0 0 1 1.894-5.712c22.592-17.165 42.218-38.487 57.575-63.267a113.09 113.09 0 0 1 5.829-2.561l8.769 16.361 49.502-26.502-56.252-104.95-.029.015-2.651-4.946-105.009 56.22 26.518 49.474 22.836-12.226c-41.641 65.635-123.329 98.347-201.398 74.756-93.9-28.374-147.005-127.454-118.615-221.301 22.104-73.069 87.095-121.422 159.11-125.859 1.355-16.262 4.431-32.628 9.347-48.877a238.962 238.962 0 0 1 3.15-9.67C330.945 96.642 456.339 29.843 575.754 65.928c21.722 6.563 41.739 16.082 59.743 27.983 23.46-10.085 50.47-12.27 76.828-4.305 42.239 12.764 71.423 48.153 78.287 88.881 2.785 16.523 1.897 33.926-3.284 51.052a114.683 114.683 0 0 1-2.069 6.194 234.335 234.335 0 0 0-46.379 56.8c-.244.15-.488.3-.732.448Z" fill="#00A7CC"/></svg>