<svg width="235" height="82" fill="none" xmlns="http://www.w3.org/2000/svg"><path d="M168.397 81.367v-81H149.08V37.45a29.197 29.197 0 0 1 3.693 8.05 21.6 21.6 0 0 1 11.79 19.278 21.61 21.61 0 0 1-7.72 16.588h11.554ZM71.75 81.367h6.784a15.318 15.318 0 0 1-3.969-10.311 15.318 15.318 0 0 1 7.707-13.316 19.385 19.385 0 0 1 8.796-11.832V40.47c0-6.407-1.791-11.443-5.373-15.108-3.582-3.692-8.243-5.537-13.984-5.537-4.478 0-8.362 1.094-11.654 3.282-3.292 2.162-5.505 5.05-6.637 8.662h-.632c-.817-3.639-2.726-6.54-5.728-8.701-3.003-2.162-6.61-3.243-10.825-3.243-4.16 0-7.742 1.067-10.745 3.203-3.002 2.136-5.135 5.05-6.4 8.74h-.671V20.618H.049v60.75h19.318V45.415c0-2.004.356-3.744 1.067-5.22.737-1.477 1.751-2.611 3.041-3.402 1.291-.818 2.779-1.226 4.464-1.226 2.503 0 4.517.817 6.045 2.452 1.527 1.635 2.291 3.863 2.291 6.684v36.663h18.567V45.099c0-2.9.75-5.207 2.252-6.921 1.527-1.74 3.621-2.61 6.281-2.61 2.476 0 4.49.804 6.044 2.412 1.554 1.582 2.331 3.89 2.331 6.922v36.465ZM195.336 46.72v34.647h-19.317v-60.75h18.369V31.77h.672c1.343-3.718 3.634-6.631 6.874-8.74 3.239-2.137 7.097-3.204 11.574-3.204 4.267 0 7.967.962 11.101 2.887 3.16 1.898 5.61 4.561 7.348 7.989 1.764 3.401 2.634 7.383 2.607 11.944v38.72h-19.317V46.444c.026-3.375-.83-6.012-2.568-7.91-1.712-1.898-4.096-2.848-7.151-2.848-2.027 0-3.818.449-5.372 1.345-1.528.87-2.713 2.123-3.556 3.757-.816 1.635-1.237 3.613-1.264 5.933Z" fill="#000"/><path d="M82.569 69.85c0 5.117 4.013 9.29 9.044 9.508v.008h50.157v-.006c8.21-.22 14.799-6.988 14.799-15.305 0-6.705-4.283-12.404-10.245-14.476-1.926-10.367-10.964-18.213-21.822-18.213-10.569 0-19.413 7.434-21.653 17.39a13.284 13.284 0 0 0-.548-.011c-6.856 0-12.487 5.279-13.1 12.019a9.515 9.515 0 0 0-6.632 9.085ZM4.515 6.278v8.089H0V.185h4.293v2.603h.157A3.982 3.982 0 0 1 6.057.748C6.814.249 7.716 0 8.762 0c.997 0 1.862.225 2.595.674a4.496 4.496 0 0 1 1.717 1.865c.412.794.615 1.724.61 2.788v9.04H9.167V6.213c.006-.788-.194-1.404-.6-1.847-.4-.443-.957-.665-1.671-.665a2.47 2.47 0 0 0-1.256.314 2.081 2.081 0 0 0-.83.877c-.191.382-.29.844-.296 1.385ZM29.316 14.607c-.904 0-1.708-.151-2.41-.453a3.753 3.753 0 0 1-1.652-1.385c-.4-.621-.6-1.4-.6-2.336 0-.788.138-1.452.415-1.994a3.55 3.55 0 0 1 1.145-1.32 5.387 5.387 0 0 1 1.68-.767 10.914 10.914 0 0 1 2.032-.36 29.39 29.39 0 0 0 1.948-.23c.492-.087.85-.207 1.07-.36a.777.777 0 0 0 .343-.675v-.046c0-.474-.164-.84-.49-1.099-.326-.258-.766-.387-1.32-.387-.597 0-1.077.129-1.44.387a1.708 1.708 0 0 0-.693 1.071l-4.164-.147c.123-.862.44-1.631.951-2.309.517-.683 1.225-1.218 2.124-1.606C29.159.197 30.245 0 31.514 0c.905 0 1.739.108 2.502.323.763.21 1.428.517 1.994.923.567.4 1.004.893 1.311 1.478.314.584.471 1.252.471 2.003v9.64h-4.247V12.39h-.11c-.253.48-.576.886-.97 1.218a3.862 3.862 0 0 1-1.376.748 5.845 5.845 0 0 1-1.773.25Zm1.395-2.955c.486 0 .923-.098 1.31-.295.395-.197.709-.468.942-.813.234-.35.351-.757.351-1.219V7.977c-.129.068-.286.13-.47.185a8.066 8.066 0 0 1-.592.157c-.215.05-.437.092-.664.13-.228.036-.447.07-.656.1a4.08 4.08 0 0 0-1.09.315 1.72 1.72 0 0 0-.683.554c-.153.221-.23.486-.23.794 0 .468.166.825.498 1.07.339.247.767.37 1.284.37ZM53.908 6.278v8.089h-4.515V.185h4.293v2.603h.157A3.981 3.981 0 0 1 55.45.748C56.207.249 57.109 0 58.155 0c.997 0 1.862.225 2.594.674a4.496 4.496 0 0 1 1.718 1.865c.412.794.615 1.724.61 2.788v9.04H58.56V6.213c.006-.788-.194-1.404-.6-1.847-.4-.443-.957-.665-1.671-.665a2.47 2.47 0 0 0-1.256.314 2.08 2.08 0 0 0-.83.877c-.192.382-.29.844-.296 1.385ZM81.331 14.634c-1.49 0-2.77-.305-3.84-.914a6.307 6.307 0 0 1-2.466-2.567c-.572-1.101-.858-2.379-.858-3.831 0-1.46.286-2.736.858-3.832A6.233 6.233 0 0 1 77.49.923C78.563.308 79.843 0 81.331 0c1.49 0 2.767.308 3.832.923a6.156 6.156 0 0 1 2.465 2.567c.579 1.096.868 2.373.868 3.832 0 1.452-.29 2.73-.868 3.831a6.23 6.23 0 0 1-2.465 2.567c-1.065.61-2.342.914-3.832.914Zm.028-3.407c.542 0 1-.166 1.376-.498.375-.333.662-.794.859-1.385.203-.591.304-1.274.304-2.05 0-.788-.101-1.477-.304-2.068-.197-.591-.484-1.053-.86-1.385-.375-.332-.833-.499-1.375-.499-.56 0-1.034.167-1.422.499-.381.332-.674.794-.877 1.385-.197.59-.295 1.28-.295 2.068 0 .776.098 1.459.295 2.05.203.59.496 1.052.877 1.385.388.332.862.498 1.422.498Z" fill="#000"/></svg>